<svg viewBox="0 0 29.0278 29.0278" x="0" y="0" fill="none" xmlns="http://www.w3.org/2000/svg"><path id="Vector_9" d="M23.75,10.5555l-1.6493,-3.6284l-3.6284,-1.6493l3.6284,-1.6493l1.6493,-3.6285l1.6493,3.6285l3.6285,1.6493l-3.6285,1.6493zM23.75,29.0278l-1.6493,-3.6285l-3.6284,-1.6493l3.6284,-1.6493l1.6493,-3.6285l1.6493,3.6285l3.6285,1.6493l-3.6285,1.6493zM10.5556,25.0694l-3.2986,-7.2569l-7.257,-3.2986l7.257,-3.2986l3.2986,-7.257l3.2986,7.257l7.2569,3.2986l-7.2569,3.2986zM10.5556,18.6701l1.3194,-2.8368l2.8368,-1.3194l-2.8368,-1.3195l-1.3194,-2.8368l-1.3195,2.8368l-2.8368,1.3195l2.8368,1.3194z" fill="currentColor" xmlns="http://www.w3.org/2000/svg"/></svg>